<svg xmlns="http://www.w3.org/2000/svg" viewBox="0 0 360 112" role="img" aria-labelledby="title desc">
  <title id="title">Jasper Bank</title>
  <desc id="desc">Jasper Bank mountain and river logo.</desc>
  <defs><linearGradient id="mark" x1="0" y1="0" x2="1" y2="1"><stop offset="0%" stop-color="#72e7ff"/><stop offset="100%" stop-color="#16b9e7"/></linearGradient></defs>
  <g transform="translate(4 6)"><circle cx="48" cy="50" r="43" fill="#ffffff" fill-opacity=".10" stroke="#ffffff" stroke-opacity=".30" stroke-width="2"/><path d="M12 64 30 43 41 54 54 30 79 64Z" fill="#ffffff"/><path d="M30 43 37 51 41 47 48 56 54 30 62 48 69 56 79 64Z" fill="#aeeeff"/><path d="M12 65h68c-13 5-24 9-34 13-10 4-19 8-25 13 7-2 14-4 22-5 10-2 20-3 30-7-10 12-24 19-39 20-15 2-29-2-38-8Z" fill="#0b5d8b" opacity=".9"/><path d="M38 15h11v48c0 11-3 20-10 27-6 6-14 9-23 9-5 0-9-1-13-2l4-10c3 1 6 2 9 2 6 0 11-2 15-5 5-5 7-11 7-21Z" fill="url(#mark)"/></g>
  <g transform="translate(102 20)"><text x="0" y="37" font-family="Arial,Helvetica,sans-serif" font-size="34" font-weight="800" letter-spacing="2" fill="#ffffff">JASPER</text><text x="2" y="68" font-family="Arial,Helvetica,sans-serif" font-size="24" font-weight="700" letter-spacing="10" fill="#7ceaff">BANK</text><text x="3" y="89" font-family="Arial,Helvetica,sans-serif" font-size="9" font-weight="700" letter-spacing="4" fill="#d7f8ff">BANKING MADE SIMPLE</text></g>
</svg>
